    <svg
      xmlns="http://www.w3.org/2000/svg"
      width="85.333"
      height="85.333"
      version="1"
      viewBox="0 0 64 64"
    >
      <path
        d="M82 537c-16-17-22-36-22-70 0-26-4-47-10-47-5 0-10-9-10-20s5-20 10-20c6 0 10-33 10-80s-4-80-10-80c-5 0-10-9-10-20s5-20 10-20c6 0 10-20 10-45V90h100v45c0 38 3 45 20 45s20-7 20-45V90h100v45c0 38 3 45 20 45s20-7 20-45V90h100v45c0 38 3 45 20 45s20-7 20-45V90h100v45c0 25 5 45 10 45 6 0 10 9 10 20s-4 20-10 20-10 33-10 80 4 80 10 80 10 9 10 20-4 20-10 20c-5 0-10 22-10 48 0 39-5 53-25 72l-25 23-25-23c-20-19-25-33-25-72 0-41-3-48-20-48s-20 7-20 48c0 39-5 53-25 72l-25 23-25-23c-20-19-25-33-25-72 0-41-3-48-20-48s-20 7-20 48c0 39-5 53-25 72l-25 23-25-23c-20-19-25-33-25-72 0-41-3-48-20-48s-20 7-20 48c0 38-5 53-23 70-29 27-29 27-55-1zm118-237c0-73-2-80-20-80s-20 7-20 80 2 80 20 80 20-7 20-80zm140 0c0-73-2-80-20-80s-20 7-20 80 2 80 20 80 20-7 20-80zm140 0c0-73-2-80-20-80s-20 7-20 80 2 80 20 80 20-7 20-80z"
        transform="matrix(.1 0 0 -.1 0 64)"
      ></path>
    </svg>