    <svg
      xmlns="http://www.w3.org/2000/svg"
      width="341.333"
      height="341.333"
      version="1"
      viewBox="0 0 256 256"
    >
      <path
        d="M1113 2545c-324-59-602-284-722-586-52-131-65-200-65-354 0-114 4-156 23-225 79-296 276-635 576-995 87-104 346-385 355-385s268 281 355 385c300 360 497 699 576 995 30 110 33 327 6 434-93 374-379 650-752 727-104 22-246 23-352 4zm282-480c172-45 305-179 350-352 65-249-94-511-350-578-251-65-513 94-580 350-89 343 237 669 580 580z"
        transform="matrix(.1 0 0 -.1 0 256)"
      ></path>
    </svg>