<svg xmlns="http://www.w3.org/2000/svg" viewBox="0 0 546.9 571.02"><defs><style>.cls-1{fill:#fbfbfb;}</style></defs><g id="Layer_2" data-name="Layer 2"><g id="Layer_1-2" data-name="Layer 1"><polygon class="cls-1" points="221.07 389.56 168.68 480.29 221.07 571.02 325.83 571.02 378.22 480.29 325.83 389.56 221.07 389.56"/><polygon class="cls-1" points="389.75 292.17 337.37 382.9 389.75 473.63 494.52 473.63 546.9 382.9 494.52 292.17 389.75 292.17"/><polygon class="cls-1" points="389.75 278.85 494.52 278.85 546.9 188.12 494.52 97.39 389.75 97.39 337.37 188.12 389.75 278.85"/><polygon class="cls-1" points="325.83 181.46 378.22 90.73 325.83 0 221.07 0 168.68 90.73 221.07 181.46 325.83 181.46"/><polygon class="cls-1" points="157.15 278.85 209.54 188.12 157.15 97.39 52.38 97.39 0 188.12 52.38 278.85 157.15 278.85"/><polygon class="cls-1" points="157.15 292.17 52.38 292.17 0 382.9 52.38 473.63 157.15 473.63 209.54 382.9 157.15 292.17"/><polygon class="cls-1" points="221.07 194.78 168.68 285.51 221.07 376.24 325.83 376.24 378.22 285.51 325.83 194.78 221.07 194.78"/></g></g></svg>