<svg xmlns="http://www.w3.org/2000/svg" viewBox="0 0 546.9 571.02"><defs><style>.cls-1{fill:#fbfbfb;}</style></defs><g id="Layer_2" data-name="Layer 2"><g id="Layer_1-2" data-name="Layer 1"><path class="cls-1" d="M221.07,389.56l-52.39,90.73L221.07,571H325.84l52.38-90.73-52.38-90.73Zm91.67,158.78H234.16l-39.29-68.05,39.29-68.05h78.58L352,480.29Z"/><path class="cls-1" d="M389.75,292.17,337.37,382.9l52.38,90.73H494.52L546.9,382.9l-52.38-90.73ZM481.43,451H402.84L363.55,382.9l39.29-68h78.59l39.29,68Z"/><path class="cls-1" d="M389.75,278.85H494.52l52.38-90.73L494.52,97.39H389.75l-52.38,90.73Zm13.09-158.78h78.59l39.29,68.05-39.29,68.06H402.84l-39.29-68.06Z"/><path class="cls-1" d="M325.84,181.46l52.38-90.73L325.84,0H221.07L168.68,90.73l52.39,90.73ZM234.16,22.68h78.58L352,90.73l-39.29,68.06H234.16L194.87,90.73Z"/><path class="cls-1" d="M157.15,278.85l52.39-90.73L157.15,97.39H52.38L0,188.12l52.38,90.73ZM65.48,120.07h78.58l39.29,68.05-39.29,68.06H65.48L26.19,188.12Z"/><path class="cls-1" d="M157.15,292.17H52.38L0,382.9l52.38,90.73H157.15l52.39-90.73ZM144.06,451H65.48L26.19,382.9l39.29-68h78.58l39.29,68Z"/><path class="cls-1" d="M221.07,194.78l-52.39,90.73,52.39,90.73H325.84l52.38-90.73-52.38-90.73Zm91.67,158.79H234.16l-39.29-68.06,39.29-68h78.58l39.29,68Z"/></g></g></svg>