    <svg xmlns="http://www.w3.org/2000/svg" x="0" y="0" viewBox="0 0 1000 1000">
      <path
        d="M4576.4 4994.1c-1182.9-201.6-2068.2-1081.2-2277.5-2262.2-38.4-213.2-42.2-656.8-7.7-916C2448.6 585 3124.6-959 4248-2654.7c414.8-626 608.8-887.2 689.4-919.9 142.1-59.5 190.1-5.8 724 800.8C6494.8-1515.9 7047.9-446.2 7410.8 606.1c424.4 1236.7 430.2 2145 17.3 2934.3-412.9 791.2-1134.9 1311.6-2016.4 1453.7-217 34.5-631.8 34.5-835.3 0zm800.8-364.9c948.6-153.6 1722.5-879.5 1933.8-1810.9C7543.3 1789 7040.2 193.2 5863-1775.1c-207.4-345.7-662.5-1048.5-804.6-1244.4l-61.5-82.6-126.7 178.6c-193.9 272.7-595.3 892.9-787.3 1215.6C3307-407.9 2798.1 840.4 2665.6 1766c-42.3 291.9-42.3 712.5 0 942.9 174.8 977.4 960.2 1755.2 1937.6 1918.4 211.3 36.5 558.9 36.5 774 1.9z"
        transform="matrix(.1 0 0 -.1 0 512)"
      ></path>
      <path
        d="M4826 3450.1c-687.5-96-1190.6-668.3-1190.6-1355.8 0-624.1 411-1159.9 1017.8-1327 170.9-48 520.4-48 691.3 0 606.8 167.1 1017.8 702.9 1017.8 1327 0 516.6-290 987-752.8 1221.3-218.9 109.6-547.3 167.2-783.5 134.5zm357.2-387.9c257.3-46.1 533.9-238.1 664.5-460.9 190.1-322.6 180.5-745.1-25-1052.3-393.7-589.6-1254-589.6-1647.7 0-205.5 307.3-215.1 729.7-25 1052.3 80.7 136.4 253.5 297.7 395.6 366.8 219 109.5 407.2 136.4 637.6 94.1zM2719.4-1736.7C1453.9-1971 624.3-2357 372.7-2831.3c-251.6-470.5 32.6-944.8 772-1296.2 670.2-318.8 1601.6-524.2 2836.4-627.9 391.7-32.6 1643.8-32.6 2035.6 0 1234.8 103.7 2166.2 309.2 2836.4 627.9 1131.1 537.7 1154.1 1344.2 53.8 1899.2-412.9 207.4-1069.6 399.4-1761 514.7-259.2 42.2-266.9 42.2-330.3 7.7-105.6-55.7-134.4-161.3-74.9-261.2 44.2-74.9 84.5-90.3 407.1-146 883.4-155.5 1572.8-399.4 1924.2-679.8 226.6-182.4 297.7-345.7 217-503.1-268.8-518.5-1655.3-954.4-3406.7-1071.5-407.1-26.9-1359.6-26.9-1766.7 0-1167.6 78.7-2152.7 286.1-2796 593.4-411 195.8-641.4 414.8-641.4 606.8 0 122.9 74.9 236.2 247.7 374.5 351.4 280.4 1040.8 524.2 1924.2 679.8 322.6 55.7 362.9 71.1 407.1 146 57.6 96 30.7 199.7-63.4 255.4-71.1 42.1-126.8 40.1-474.4-25.1z"
        transform="matrix(.1 0 0 -.1 0 512)"
      ></path>
    </svg>