<?xml version="1.0" encoding="utf-8"?>
<!-- Generator: Adobe Illustrator 24.0.0, SVG Export Plug-In . SVG Version: 6.00 Build 0)  -->
<svg version="1.1" xmlns="http://www.w3.org/2000/svg" xmlns:xlink="http://www.w3.org/1999/xlink" x="0px" y="0px"
	 viewBox="0 0 700 500" style="enable-background:new 0 0 700 500;" xml:space="preserve">
<style type="text/css">
	.st0{opacity:3.000000e-02;}
	.st1{fill:#246C66;stroke:#FFFFFF;stroke-width:2;stroke-miterlimit:10;}
	.st2{fill:none;stroke:#BFBFBF;stroke-miterlimit:10;}
	.st3{opacity:5.000000e-02;enable-background:new    ;}
	.st4{fill:#C7C7C7;stroke:#263238;stroke-width:1.2641;stroke-miterlimit:10;}
	.st5{fill:#246C66;stroke:#263238;stroke-width:1.2641;stroke-miterlimit:10;}
	.st6{fill:#246C66;stroke:#FFFFFF;stroke-width:2.5282;stroke-miterlimit:10;}
	.st7{fill:#FFFFFF;}
	.st8{fill:#263238;stroke:#263238;stroke-linecap:round;stroke-linejoin:round;}
	.st9{fill:#246C66;stroke:#263238;stroke-linecap:round;stroke-linejoin:round;}
	.st10{fill:#636363;stroke:#263238;stroke-linecap:round;stroke-linejoin:round;}
	.st11{fill:#FFFFFF;stroke:#263238;stroke-linecap:round;stroke-linejoin:round;}
	.st12{fill:none;stroke:#263238;stroke-width:2;stroke-linecap:round;stroke-linejoin:round;}
	.st13{fill:none;stroke:#263238;stroke-linecap:round;stroke-linejoin:round;}
</style>
<g id="Layer_1">
	<g id="freepik--background-simple--inject-4" class="st0">
		<path class="st1" d="M644.9,162.8C595,62,438.8,4.7,347.4,111.2c-3.6,4.2-7,8.6-10.2,13.1c-23.3,33.1-58.3,90.5-101,76.5
			c-29.2-9.6-49.3-36.1-78.2-46.4c-38.1-13.6-74.3,14.2-97.7,49.8c-27.1,41.3-40.1,89.8-24.7,134.6
			c28.8,83.5,140.7,102.3,217.3,94.6c56.1-5.6,110.2-36,166.4-37.9c40.4-1.4,79.1,9.8,115.5,23.7c16.9,6.4,33.7,13.5,52,15.3
			c65.3,6.4,77.8-59,79.4-113.9C667.7,266.1,668.2,209.8,644.9,162.8z"/>
	</g>
	<g id="freepik--Buildings--inject-4">
		<rect x="339.1" y="217.3" class="st2" width="53.3" height="3"/>
		<rect x="333.8" y="263.6" class="st2" width="63.4" height="3"/>
		<rect x="350.2" y="142.4" class="st2" width="31.1" height="74.5"/>
		<path class="st2" d="M363.9,120h3.6c7.6,0,13.8,6.2,13.8,13.8l0,0v8.8l0,0h-31.1l0,0v-8.8C350.2,126.2,356.3,120,363.9,120
			L363.9,120z"/>
		<path class="st2" d="M364.8,120h1.8c3.9,0,7,3.1,7,7v15.6l0,0h-15.8l0,0V127C357.9,123.1,361,120,364.8,120z"/>
		<rect x="350.2" y="160.2" class="st2" width="31.1" height="3.2"/>
		<rect x="339.1" y="210" class="st2" width="53.3" height="7.1"/>
		<rect x="341.1" y="220.3" class="st2" width="49.3" height="43.4"/>
		<rect x="341.1" y="266.8" class="st2" width="49.3" height="162.7"/>
		<rect x="347" y="226.8" class="st2" width="5.3" height="7.3"/>
		<rect x="362.3" y="226.8" class="st2" width="5.3" height="7.3"/>
		<rect x="377.6" y="226.8" class="st2" width="5.3" height="7.3"/>
		<rect x="347" y="247.4" class="st2" width="5.3" height="7.3"/>
		<rect x="347" y="269.4" class="st2" width="5.3" height="7.3"/>
		<rect x="362.3" y="247.4" class="st2" width="5.3" height="7.3"/>
		<rect x="362.3" y="269.4" class="st2" width="5.3" height="7.3"/>
		<rect x="377.6" y="247.4" class="st2" width="5.3" height="7.3"/>
		<rect x="377.6" y="269.4" class="st2" width="5.3" height="7.3"/>
		<rect x="347" y="285.7" class="st2" width="5.3" height="7.3"/>
		<rect x="362.3" y="285.7" class="st2" width="5.3" height="7.3"/>
		<rect x="377.6" y="285.7" class="st2" width="5.3" height="7.3"/>
		<rect x="347" y="302.1" class="st2" width="5.3" height="7.3"/>
		<rect x="362.3" y="302.1" class="st2" width="5.3" height="7.3"/>
		<rect x="377.6" y="302.1" class="st2" width="5.3" height="7.3"/>
		<rect x="347" y="318.4" class="st2" width="5.3" height="7.3"/>
		<rect x="362.3" y="318.4" class="st2" width="5.3" height="7.3"/>
		<rect x="377.6" y="318.4" class="st2" width="5.3" height="7.3"/>
		<rect x="347" y="334.8" class="st2" width="5.3" height="7.3"/>
		<rect x="362.3" y="334.8" class="st2" width="5.3" height="7.3"/>
		<rect x="377.6" y="334.8" class="st2" width="5.3" height="7.3"/>
		<rect x="347" y="351.1" class="st2" width="5.3" height="7.3"/>
		<rect x="362.3" y="351.1" class="st2" width="5.3" height="7.3"/>
		<rect x="377.6" y="351.1" class="st2" width="5.3" height="7.3"/>
		<rect x="347" y="367.5" class="st2" width="5.3" height="7.3"/>
		<rect x="362.3" y="367.5" class="st2" width="5.3" height="7.3"/>
		<rect x="377.6" y="367.5" class="st2" width="5.3" height="7.3"/>
		<rect x="347" y="383.8" class="st2" width="5.3" height="7.3"/>
		<rect x="362.3" y="383.8" class="st2" width="5.3" height="7.3"/>
		<rect x="377.6" y="383.8" class="st2" width="5.3" height="7.3"/>
		<rect x="347" y="400.2" class="st2" width="5.3" height="7.3"/>
		<rect x="362.3" y="400.2" class="st2" width="5.3" height="7.3"/>
		<rect x="377.6" y="400.2" class="st2" width="5.3" height="7.3"/>
		<rect x="334" y="246.2" class="st2" width="7" height="17.6"/>
		<rect x="335.8" y="249" class="st2" width="3.5" height="14.7"/>
		<rect x="391.9" y="249" class="st2" width="3.5" height="14.7"/>
		<polygon class="st2" points="337.4,238.3 332.9,246.2 342,246.2 		"/>
		<rect x="338.9" y="207.4" class="st2" width="4.7" height="9.5"/>
		<polygon class="st2" points="341.1,194.5 338.1,207.4 344.1,207.4 		"/>
		<rect x="351" y="207.4" class="st2" width="4.7" height="9.5"/>
		<polygon class="st2" points="353.2,194.5 350.2,207.4 356.2,207.4 		"/>
		<rect x="363.1" y="207.4" class="st2" width="4.7" height="9.5"/>
		<polygon class="st2" points="365.3,194.5 362.3,207.4 368.4,207.4 		"/>
		<rect x="375.2" y="207.4" class="st2" width="4.7" height="9.5"/>
		<polygon class="st2" points="377.5,194.5 374.4,207.4 380.5,207.4 		"/>
		<rect x="387.3" y="207.4" class="st2" width="4.7" height="9.5"/>
		<polygon class="st2" points="389.6,194.5 386.5,207.4 392.6,207.4 		"/>
		<rect x="390.1" y="246.2" class="st2" width="7" height="17.6"/>
		<polygon class="st2" points="393.5,238.3 389,246.2 398.1,246.2 		"/>
		<line class="st2" x1="358.3" y1="142.4" x2="358.3" y2="160.3"/>
		<line class="st2" x1="361.1" y1="142.4" x2="361.1" y2="160.3"/>
		<line class="st2" x1="358.3" y1="163.4" x2="358.3" y2="216.9"/>
		<line class="st2" x1="361.1" y1="163.4" x2="361.1" y2="216.9"/>
		<line class="st2" x1="370.4" y1="142.4" x2="370.4" y2="160.3"/>
		<line class="st2" x1="373.2" y1="142.4" x2="373.2" y2="160.3"/>
		<line class="st2" x1="370.4" y1="163.4" x2="370.4" y2="216.9"/>
		<line class="st2" x1="373.2" y1="163.4" x2="373.2" y2="216.9"/>
		<rect x="362.4" y="112.3" class="st2" width="6.4" height="7.9"/>
		<path class="st2" d="M365.2,104.7h0.7c1.6,0,2.8,1.3,2.8,2.8v3.2l0,0h-6.4l0,0v-3.2C362.4,105.9,363.7,104.7,365.2,104.7z"/>
		<rect x="362.4" y="110.9" class="st2" width="6.4" height="1.5"/>
		<line class="st2" x1="365.6" y1="104.7" x2="365.6" y2="89.8"/>
		<line class="st2" x1="360.4" y1="96.2" x2="370.7" y2="96.2"/>
		<path class="st2" d="M366.9,96c0-0.8-0.6-1.4-1.4-1.4c-0.8,0-1.4,0.6-1.4,1.4s0.6,1.4,1.4,1.4l0,0C366.3,97.4,366.9,96.7,366.9,96
			z"/>
		<line class="st2" x1="341.1" y1="257" x2="390" y2="257"/>
		<polyline class="st2" points="241.6,389.9 241.6,325.3 249.6,325.3 249.6,220.3 256.7,220.3 256.7,133.3 261.2,133.3 261.2,111.2 
			272.8,111.2 272.8,102.9 277.3,102.9 280.6,102.9 288.9,102.9 288.9,111.2 300.8,111.2 300.8,133.3 305.4,133.3 305.4,220.3 
			312.6,220.3 312.6,325.3 320.9,325.3 320.9,374.1 		"/>
		<line class="st2" x1="272.8" y1="111.2" x2="272.8" y2="219.4"/>
		<line class="st2" x1="288.9" y1="111.2" x2="288.9" y2="218.5"/>
		<line class="st2" x1="263.7" y1="219.4" x2="301.5" y2="219.4"/>
		<line class="st2" x1="253.4" y1="326.1" x2="308.4" y2="326.1"/>
		<line class="st2" x1="266.3" y1="228" x2="297.2" y2="228"/>
		<line class="st2" x1="266.3" y1="235.7" x2="297.2" y2="235.7"/>
		<line class="st2" x1="266.3" y1="243.5" x2="297.2" y2="243.5"/>
		<line class="st2" x1="266.3" y1="251.2" x2="297.2" y2="251.2"/>
		<line class="st2" x1="266.3" y1="259" x2="297.2" y2="259"/>
		<line class="st2" x1="266.3" y1="266.7" x2="297.2" y2="266.7"/>
		<line class="st2" x1="266.3" y1="274.5" x2="297.2" y2="274.5"/>
		<line class="st2" x1="266.3" y1="282.2" x2="297.2" y2="282.2"/>
		<line class="st2" x1="266.3" y1="289.9" x2="297.2" y2="289.9"/>
		<line class="st2" x1="266.3" y1="297.7" x2="297.2" y2="297.7"/>
		<line class="st2" x1="266.3" y1="305.4" x2="297.2" y2="305.4"/>
		<line class="st2" x1="266.3" y1="313.2" x2="297.2" y2="313.2"/>
		<line class="st2" x1="266.3" y1="320.9" x2="297.2" y2="320.9"/>
		<line class="st2" x1="266.3" y1="333" x2="297.2" y2="333"/>
		<line class="st2" x1="266.3" y1="340.7" x2="297.2" y2="340.7"/>
		<line class="st2" x1="266.3" y1="348.5" x2="297.2" y2="348.5"/>
		<line class="st2" x1="266.3" y1="356.2" x2="297.2" y2="356.2"/>
		<line class="st2" x1="266.3" y1="363.9" x2="297.2" y2="363.9"/>
		<line class="st2" x1="266.3" y1="371.7" x2="297.2" y2="371.7"/>
		<line class="st2" x1="266.3" y1="379.4" x2="292.1" y2="379.4"/>
		<line class="st2" x1="266.3" y1="387.2" x2="292.1" y2="387.2"/>
		<line class="st2" x1="266.3" y1="394.9" x2="292.1" y2="394.9"/>
		<line class="st2" x1="266.3" y1="402.6" x2="292.1" y2="402.6"/>
		<line class="st2" x1="266.3" y1="410.4" x2="292.1" y2="410.4"/>
		<line class="st2" x1="261.5" y1="228" x2="255.9" y2="228"/>
		<line class="st2" x1="261.5" y1="235.7" x2="255.9" y2="235.7"/>
		<line class="st2" x1="261.5" y1="243.5" x2="255.9" y2="243.5"/>
		<line class="st2" x1="261.5" y1="251.2" x2="255.9" y2="251.2"/>
		<line class="st2" x1="261.5" y1="259" x2="255.9" y2="259"/>
		<line class="st2" x1="261.5" y1="266.7" x2="255.9" y2="266.7"/>
		<line class="st2" x1="261.5" y1="274.5" x2="255.9" y2="274.5"/>
		<line class="st2" x1="261.5" y1="282.2" x2="255.9" y2="282.2"/>
		<line class="st2" x1="261.5" y1="289.9" x2="255.9" y2="289.9"/>
		<line class="st2" x1="261.5" y1="297.7" x2="255.9" y2="297.7"/>
		<line class="st2" x1="261.5" y1="305.4" x2="255.9" y2="305.4"/>
		<line class="st2" x1="261.5" y1="313.2" x2="255.9" y2="313.2"/>
		<line class="st2" x1="261.5" y1="320.9" x2="255.9" y2="320.9"/>
		<line class="st2" x1="307.6" y1="228" x2="302" y2="228"/>
		<line class="st2" x1="307.6" y1="235.7" x2="302" y2="235.7"/>
		<line class="st2" x1="307.6" y1="243.5" x2="302" y2="243.5"/>
		<line class="st2" x1="307.6" y1="251.2" x2="302" y2="251.2"/>
		<line class="st2" x1="307.6" y1="259" x2="302" y2="259"/>
		<line class="st2" x1="307.6" y1="266.7" x2="302" y2="266.7"/>
		<line class="st2" x1="307.6" y1="274.5" x2="302" y2="274.5"/>
		<line class="st2" x1="307.6" y1="282.2" x2="302" y2="282.2"/>
		<line class="st2" x1="307.6" y1="289.9" x2="302" y2="289.9"/>
		<line class="st2" x1="307.6" y1="297.7" x2="302" y2="297.7"/>
		<line class="st2" x1="307.6" y1="305.4" x2="302" y2="305.4"/>
		<line class="st2" x1="307.6" y1="313.2" x2="302" y2="313.2"/>
		<line class="st2" x1="307.6" y1="320.9" x2="302" y2="320.9"/>
		<line class="st2" x1="261.5" y1="333" x2="255.9" y2="333"/>
		<line class="st2" x1="261.5" y1="340.7" x2="255.9" y2="340.7"/>
		<line class="st2" x1="261.5" y1="348.5" x2="255.9" y2="348.5"/>
		<line class="st2" x1="261.5" y1="356.2" x2="255.9" y2="356.2"/>
		<line class="st2" x1="261.5" y1="363.9" x2="255.9" y2="363.9"/>
		<line class="st2" x1="261.5" y1="371.7" x2="255.9" y2="371.7"/>
		<line class="st2" x1="261.5" y1="379.4" x2="255.9" y2="379.4"/>
		<line class="st2" x1="261.5" y1="387.2" x2="255.9" y2="387.2"/>
		<line class="st2" x1="261.5" y1="394.9" x2="255.9" y2="394.9"/>
		<line class="st2" x1="261.5" y1="402.6" x2="255.9" y2="402.6"/>
		<line class="st2" x1="261.5" y1="410.4" x2="255.9" y2="410.4"/>
		<line class="st2" x1="249.5" y1="333" x2="243.9" y2="333"/>
		<line class="st2" x1="249.5" y1="340.7" x2="243.9" y2="340.7"/>
		<line class="st2" x1="249.5" y1="348.5" x2="243.9" y2="348.5"/>
		<line class="st2" x1="249.5" y1="356.2" x2="243.9" y2="356.2"/>
		<line class="st2" x1="249.5" y1="363.9" x2="243.9" y2="363.9"/>
		<line class="st2" x1="249.5" y1="371.7" x2="243.9" y2="371.7"/>
		<line class="st2" x1="249.5" y1="379.4" x2="243.9" y2="379.4"/>
		<line class="st2" x1="249.5" y1="387.2" x2="243.9" y2="387.2"/>
		<line class="st2" x1="307.6" y1="333" x2="302" y2="333"/>
		<line class="st2" x1="307.6" y1="340.7" x2="302" y2="340.7"/>
		<line class="st2" x1="307.6" y1="348.5" x2="302" y2="348.5"/>
		<line class="st2" x1="307.6" y1="356.2" x2="302" y2="356.2"/>
		<line class="st2" x1="307.6" y1="363.9" x2="302" y2="363.9"/>
		<line class="st2" x1="307.6" y1="371.7" x2="302" y2="371.7"/>
		<line class="st2" x1="317.9" y1="333" x2="312.3" y2="333"/>
		<line class="st2" x1="317.9" y1="340.7" x2="312.3" y2="340.7"/>
		<line class="st2" x1="317.9" y1="348.5" x2="312.3" y2="348.5"/>
		<line class="st2" x1="317.9" y1="356.2" x2="312.3" y2="356.2"/>
		<line class="st2" x1="317.9" y1="363.9" x2="312.3" y2="363.9"/>
		<line class="st2" x1="317.9" y1="371.7" x2="312.3" y2="371.7"/>
		<line class="st2" x1="260.3" y1="147.1" x2="269.7" y2="147.1"/>
		<line class="st2" x1="260.3" y1="154" x2="269.7" y2="154"/>
		<line class="st2" x1="260.3" y1="160.9" x2="269.7" y2="160.9"/>
		<line class="st2" x1="260.3" y1="167.8" x2="269.7" y2="167.8"/>
		<line class="st2" x1="260.3" y1="174.6" x2="269.7" y2="174.6"/>
		<line class="st2" x1="260.3" y1="181.5" x2="269.7" y2="181.5"/>
		<line class="st2" x1="260.3" y1="188.4" x2="269.7" y2="188.4"/>
		<line class="st2" x1="260.3" y1="195.3" x2="269.7" y2="195.3"/>
		<line class="st2" x1="260.3" y1="202.2" x2="269.7" y2="202.2"/>
		<line class="st2" x1="260.3" y1="209.1" x2="269.7" y2="209.1"/>
		<line class="st2" x1="260.3" y1="215.9" x2="269.7" y2="215.9"/>
		<line class="st2" x1="290.4" y1="147.1" x2="299.8" y2="147.1"/>
		<line class="st2" x1="290.4" y1="154" x2="299.8" y2="154"/>
		<line class="st2" x1="290.4" y1="160.9" x2="299.8" y2="160.9"/>
		<line class="st2" x1="290.4" y1="167.8" x2="299.8" y2="167.8"/>
		<line class="st2" x1="290.4" y1="174.6" x2="299.8" y2="174.6"/>
		<line class="st2" x1="290.4" y1="181.5" x2="299.8" y2="181.5"/>
		<line class="st2" x1="290.4" y1="188.4" x2="299.8" y2="188.4"/>
		<line class="st2" x1="290.4" y1="195.3" x2="299.8" y2="195.3"/>
		<line class="st2" x1="290.4" y1="202.2" x2="299.8" y2="202.2"/>
		<line class="st2" x1="290.4" y1="209.1" x2="299.8" y2="209.1"/>
		<line class="st2" x1="290.4" y1="215.9" x2="299.8" y2="215.9"/>
		<polyline class="st2" points="128.6,428.2 128.6,325.3 139.9,325.3 139.9,220.3 149.8,220.3 149.8,133.3 156.2,133.3 156.2,111.2 
			172.4,111.2 172.4,102.9 178.7,102.9 183.4,102.9 195.1,102.9 195.1,111.2 211.8,111.2 211.8,133.3 218.3,133.3 218.3,220.3 
			228.4,220.3 228.4,325.3 240,325.3 240,389.9 		"/>
		<line class="st2" x1="172.4" y1="111.2" x2="172.4" y2="219.4"/>
		<line class="st2" x1="195.1" y1="111.2" x2="195.1" y2="218.5"/>
		<line class="st2" x1="159.7" y1="219.4" x2="212.9" y2="219.4"/>
		<line class="st2" x1="145.2" y1="326.1" x2="222.5" y2="326.1"/>
		<line class="st2" x1="163.3" y1="228" x2="206.8" y2="228"/>
		<line class="st2" x1="163.3" y1="235.7" x2="206.8" y2="235.7"/>
		<line class="st2" x1="163.3" y1="243.5" x2="206.8" y2="243.5"/>
		<line class="st2" x1="163.3" y1="251.2" x2="206.8" y2="251.2"/>
		<line class="st2" x1="163.3" y1="259" x2="206.8" y2="259"/>
		<line class="st2" x1="163.3" y1="266.7" x2="206.8" y2="266.7"/>
		<line class="st2" x1="163.3" y1="274.5" x2="206.8" y2="274.5"/>
		<line class="st2" x1="163.3" y1="282.2" x2="206.8" y2="282.2"/>
		<line class="st2" x1="163.3" y1="289.9" x2="206.8" y2="289.9"/>
		<line class="st2" x1="163.3" y1="297.7" x2="206.8" y2="297.7"/>
		<line class="st2" x1="163.3" y1="305.4" x2="206.8" y2="305.4"/>
		<line class="st2" x1="163.3" y1="313.2" x2="206.8" y2="313.2"/>
		<line class="st2" x1="163.3" y1="320.9" x2="206.8" y2="320.9"/>
		<line class="st2" x1="163.3" y1="333" x2="206.8" y2="333"/>
		<line class="st2" x1="163.3" y1="340.7" x2="206.8" y2="340.7"/>
		<line class="st2" x1="163.3" y1="348.5" x2="206.8" y2="348.5"/>
		<line class="st2" x1="163.3" y1="356.2" x2="206.8" y2="356.2"/>
		<line class="st2" x1="163.3" y1="363.9" x2="206.8" y2="363.9"/>
		<line class="st2" x1="163.3" y1="371.7" x2="206.8" y2="371.7"/>
		<line class="st2" x1="163.3" y1="379.4" x2="206.8" y2="379.4"/>
		<line class="st2" x1="163.3" y1="387.2" x2="206.8" y2="387.2"/>
		<line class="st2" x1="156.7" y1="228" x2="148.8" y2="228"/>
		<line class="st2" x1="156.7" y1="235.7" x2="148.8" y2="235.7"/>
		<line class="st2" x1="156.7" y1="243.5" x2="148.8" y2="243.5"/>
		<line class="st2" x1="156.7" y1="251.2" x2="148.8" y2="251.2"/>
		<line class="st2" x1="156.7" y1="259" x2="148.8" y2="259"/>
		<line class="st2" x1="156.7" y1="266.7" x2="148.8" y2="266.7"/>
		<line class="st2" x1="156.7" y1="274.5" x2="148.8" y2="274.5"/>
		<line class="st2" x1="156.7" y1="282.2" x2="148.8" y2="282.2"/>
		<line class="st2" x1="156.7" y1="289.9" x2="148.8" y2="289.9"/>
		<line class="st2" x1="156.7" y1="297.7" x2="148.8" y2="297.7"/>
		<line class="st2" x1="156.7" y1="305.4" x2="148.8" y2="305.4"/>
		<line class="st2" x1="156.7" y1="313.2" x2="148.8" y2="313.2"/>
		<line class="st2" x1="156.7" y1="320.9" x2="148.8" y2="320.9"/>
		<line class="st2" x1="221.3" y1="228" x2="213.4" y2="228"/>
		<line class="st2" x1="221.3" y1="235.7" x2="213.4" y2="235.7"/>
		<line class="st2" x1="221.3" y1="243.5" x2="213.4" y2="243.5"/>
		<line class="st2" x1="221.3" y1="251.2" x2="213.4" y2="251.2"/>
		<line class="st2" x1="221.3" y1="259" x2="213.4" y2="259"/>
		<line class="st2" x1="221.3" y1="266.7" x2="213.4" y2="266.7"/>
		<line class="st2" x1="221.3" y1="274.5" x2="213.4" y2="274.5"/>
		<line class="st2" x1="221.3" y1="282.2" x2="213.4" y2="282.2"/>
		<line class="st2" x1="221.3" y1="289.9" x2="213.4" y2="289.9"/>
		<line class="st2" x1="221.3" y1="297.7" x2="213.4" y2="297.7"/>
		<line class="st2" x1="221.3" y1="305.4" x2="213.4" y2="305.4"/>
		<line class="st2" x1="221.3" y1="313.2" x2="213.4" y2="313.2"/>
		<line class="st2" x1="221.3" y1="320.9" x2="213.4" y2="320.9"/>
		<line class="st2" x1="156.7" y1="333" x2="148.8" y2="333"/>
		<line class="st2" x1="156.7" y1="340.7" x2="148.8" y2="340.7"/>
		<line class="st2" x1="156.7" y1="348.5" x2="148.8" y2="348.5"/>
		<line class="st2" x1="156.7" y1="356.2" x2="148.8" y2="356.2"/>
		<line class="st2" x1="156.7" y1="363.9" x2="148.8" y2="363.9"/>
		<line class="st2" x1="156.7" y1="371.7" x2="148.8" y2="371.7"/>
		<line class="st2" x1="156.7" y1="379.4" x2="148.8" y2="379.4"/>
		<line class="st2" x1="156.7" y1="387.2" x2="148.8" y2="387.2"/>
		<line class="st2" x1="156.7" y1="394.9" x2="148.8" y2="394.9"/>
		<line class="st2" x1="156.7" y1="402.6" x2="148.8" y2="402.6"/>
		<line class="st2" x1="156.7" y1="410.4" x2="148.8" y2="410.4"/>
		<line class="st2" x1="156.7" y1="418.1" x2="148.8" y2="418.1"/>
		<line class="st2" x1="156.7" y1="425.9" x2="148.8" y2="425.9"/>
		<line class="st2" x1="139.8" y1="333" x2="131.9" y2="333"/>
		<line class="st2" x1="139.8" y1="340.7" x2="131.9" y2="340.7"/>
		<line class="st2" x1="139.8" y1="348.5" x2="131.9" y2="348.5"/>
		<line class="st2" x1="139.8" y1="356.2" x2="131.9" y2="356.2"/>
		<line class="st2" x1="139.8" y1="363.9" x2="131.9" y2="363.9"/>
		<line class="st2" x1="139.8" y1="371.7" x2="131.9" y2="371.7"/>
		<line class="st2" x1="139.8" y1="379.4" x2="131.9" y2="379.4"/>
		<line class="st2" x1="139.8" y1="387.2" x2="131.9" y2="387.2"/>
		<line class="st2" x1="139.8" y1="394.9" x2="131.9" y2="394.9"/>
		<line class="st2" x1="139.8" y1="402.6" x2="131.9" y2="402.6"/>
		<line class="st2" x1="139.8" y1="410.4" x2="131.9" y2="410.4"/>
		<line class="st2" x1="139.8" y1="418.1" x2="131.9" y2="418.1"/>
		<line class="st2" x1="139.8" y1="425.9" x2="131.9" y2="425.9"/>
		<line class="st2" x1="221.3" y1="333" x2="213.4" y2="333"/>
		<line class="st2" x1="221.3" y1="340.7" x2="213.4" y2="340.7"/>
		<line class="st2" x1="221.3" y1="348.5" x2="213.4" y2="348.5"/>
		<line class="st2" x1="221.3" y1="356.2" x2="213.4" y2="356.2"/>
		<line class="st2" x1="221.3" y1="363.9" x2="213.4" y2="363.9"/>
		<line class="st2" x1="221.3" y1="371.7" x2="213.4" y2="371.7"/>
		<line class="st2" x1="221.3" y1="379.4" x2="213.4" y2="379.4"/>
		<line class="st2" x1="221.3" y1="387.2" x2="213.4" y2="387.2"/>
		<line class="st2" x1="235.8" y1="333" x2="227.9" y2="333"/>
		<line class="st2" x1="235.8" y1="340.7" x2="227.9" y2="340.7"/>
		<line class="st2" x1="235.8" y1="348.5" x2="227.9" y2="348.5"/>
		<line class="st2" x1="235.8" y1="356.2" x2="227.9" y2="356.2"/>
		<line class="st2" x1="235.8" y1="363.9" x2="227.9" y2="363.9"/>
		<line class="st2" x1="235.8" y1="371.7" x2="227.9" y2="371.7"/>
		<line class="st2" x1="235.8" y1="379.4" x2="227.9" y2="379.4"/>
		<line class="st2" x1="235.8" y1="387.2" x2="227.9" y2="387.2"/>
		<line class="st2" x1="154.8" y1="147.1" x2="168.1" y2="147.1"/>
		<line class="st2" x1="154.8" y1="154" x2="168.1" y2="154"/>
		<line class="st2" x1="154.8" y1="160.9" x2="168.1" y2="160.9"/>
		<line class="st2" x1="154.8" y1="167.8" x2="168.1" y2="167.8"/>
		<line class="st2" x1="154.8" y1="174.6" x2="168.1" y2="174.6"/>
		<line class="st2" x1="154.8" y1="181.5" x2="168.1" y2="181.5"/>
		<line class="st2" x1="154.8" y1="188.4" x2="168.1" y2="188.4"/>
		<line class="st2" x1="154.8" y1="195.3" x2="168.1" y2="195.3"/>
		<line class="st2" x1="154.8" y1="202.2" x2="168.1" y2="202.2"/>
		<line class="st2" x1="154.8" y1="209.1" x2="168.1" y2="209.1"/>
		<line class="st2" x1="154.8" y1="215.9" x2="168.1" y2="215.9"/>
		<line class="st2" x1="197.1" y1="147.1" x2="210.4" y2="147.1"/>
		<line class="st2" x1="197.1" y1="154" x2="210.4" y2="154"/>
		<line class="st2" x1="197.1" y1="160.9" x2="210.4" y2="160.9"/>
		<line class="st2" x1="197.1" y1="167.8" x2="210.4" y2="167.8"/>
		<line class="st2" x1="197.1" y1="174.6" x2="210.4" y2="174.6"/>
		<line class="st2" x1="197.1" y1="181.5" x2="210.4" y2="181.5"/>
		<line class="st2" x1="197.1" y1="188.4" x2="210.4" y2="188.4"/>
		<line class="st2" x1="197.1" y1="195.3" x2="210.4" y2="195.3"/>
		<line class="st2" x1="197.1" y1="202.2" x2="210.4" y2="202.2"/>
		<line class="st2" x1="197.1" y1="209.1" x2="210.4" y2="209.1"/>
		<line class="st2" x1="197.1" y1="215.9" x2="210.4" y2="215.9"/>
		<line class="st2" x1="156.2" y1="133.3" x2="170.8" y2="133.3"/>
		<line class="st2" x1="211.8" y1="133.3" x2="195.7" y2="133.3"/>
		<line class="st2" x1="173.4" y1="119.6" x2="194" y2="119.6"/>
		<polyline class="st2" points="527.8,386 527.8,251.2 401.4,251.2 401.4,366.1 		"/>
		<rect x="484.8" y="220.2" class="st2" width="43" height="30.1"/>
		<rect x="401.4" y="220.2" class="st2" width="43" height="30.1"/>
		<rect x="401.4" y="220.2" class="st2" width="21.5" height="30.1"/>
		<rect x="487.4" y="238.3" class="st2" width="37.9" height="12.9"/>
		<rect x="487.4" y="222.8" class="st2" width="9.5" height="9.5"/>
		<rect x="500.3" y="222.8" class="st2" width="12" height="9.5"/>
		<rect x="515.8" y="222.8" class="st2" width="9.5" height="9.5"/>
		<path class="st2" d="M425.4,256.4v110.1"/>
		<path class="st2" d="M435.8,256.4v110.1"/>
		<path class="st2" d="M463.3,256.4v130.5"/>
		<path class="st2" d="M473.6,256.4v130.5"/>
		<path class="st2" d="M501.2,256.4v130.5"/>
		<path class="st2" d="M511.5,256.4v130.5"/>
		<line class="st2" x1="418.6" y1="257.2" x2="412.9" y2="257.2"/>
		<line class="st2" x1="418.6" y1="264" x2="412.9" y2="264"/>
		<line class="st2" x1="418.6" y1="270.8" x2="412.9" y2="270.8"/>
		<line class="st2" x1="418.6" y1="277.5" x2="412.9" y2="277.5"/>
		<line class="st2" x1="418.6" y1="284.3" x2="412.9" y2="284.3"/>
		<line class="st2" x1="418.6" y1="291.1" x2="412.9" y2="291.1"/>
		<line class="st2" x1="418.6" y1="297.8" x2="412.9" y2="297.8"/>
		<line class="st2" x1="418.6" y1="304.6" x2="412.9" y2="304.6"/>
		<line class="st2" x1="418.6" y1="311.4" x2="412.9" y2="311.4"/>
		<line class="st2" x1="418.6" y1="318.1" x2="412.9" y2="318.1"/>
		<line class="st2" x1="418.6" y1="324.9" x2="412.9" y2="324.9"/>
		<line class="st2" x1="418.6" y1="331.7" x2="412.9" y2="331.7"/>
		<line class="st2" x1="418.6" y1="338.5" x2="412.9" y2="338.5"/>
		<line class="st2" x1="418.6" y1="343" x2="412.9" y2="343"/>
		<line class="st2" x1="418.6" y1="349.7" x2="412.9" y2="349.7"/>
		<line class="st2" x1="418.6" y1="356.5" x2="412.9" y2="356.5"/>
		<line class="st2" x1="418.6" y1="363.3" x2="412.9" y2="363.3"/>
		<line class="st2" x1="452.1" y1="257.2" x2="446.5" y2="257.2"/>
		<line class="st2" x1="452.1" y1="264" x2="446.5" y2="264"/>
		<line class="st2" x1="452.1" y1="270.8" x2="446.5" y2="270.8"/>
		<line class="st2" x1="452.1" y1="277.5" x2="446.5" y2="277.5"/>
		<line class="st2" x1="452.1" y1="284.3" x2="446.5" y2="284.3"/>
		<line class="st2" x1="452.1" y1="291.1" x2="446.5" y2="291.1"/>
		<line class="st2" x1="452.1" y1="297.8" x2="446.5" y2="297.8"/>
		<line class="st2" x1="452.1" y1="304.6" x2="446.5" y2="304.6"/>
		<line class="st2" x1="452.1" y1="311.4" x2="446.5" y2="311.4"/>
		<line class="st2" x1="452.1" y1="318.1" x2="446.5" y2="318.1"/>
		<line class="st2" x1="452.1" y1="324.9" x2="446.5" y2="324.9"/>
		<line class="st2" x1="452.1" y1="331.7" x2="446.5" y2="331.7"/>
		<line class="st2" x1="452.1" y1="338.5" x2="446.5" y2="338.5"/>
		<line class="st2" x1="452.1" y1="343" x2="446.5" y2="343"/>
		<line class="st2" x1="452.1" y1="349.7" x2="446.5" y2="349.7"/>
		<line class="st2" x1="452.1" y1="356.5" x2="446.5" y2="356.5"/>
		<line class="st2" x1="452.1" y1="363.3" x2="446.5" y2="363.3"/>
		<line class="st2" x1="490" y1="257.2" x2="484.4" y2="257.2"/>
		<line class="st2" x1="490" y1="264" x2="484.4" y2="264"/>
		<line class="st2" x1="490" y1="270.8" x2="484.4" y2="270.8"/>
		<line class="st2" x1="490" y1="277.5" x2="484.4" y2="277.5"/>
		<line class="st2" x1="490" y1="284.3" x2="484.4" y2="284.3"/>
		<line class="st2" x1="490" y1="291.1" x2="484.4" y2="291.1"/>
		<line class="st2" x1="490" y1="297.8" x2="484.4" y2="297.8"/>
		<line class="st2" x1="490" y1="304.6" x2="484.4" y2="304.6"/>
		<line class="st2" x1="490" y1="311.4" x2="484.4" y2="311.4"/>
		<line class="st2" x1="490" y1="318.1" x2="484.4" y2="318.1"/>
		<line class="st2" x1="490" y1="324.9" x2="484.4" y2="324.9"/>
		<line class="st2" x1="490" y1="331.7" x2="484.4" y2="331.7"/>
		<line class="st2" x1="490" y1="338.5" x2="484.4" y2="338.5"/>
		<line class="st2" x1="490" y1="343" x2="484.4" y2="343"/>
		<line class="st2" x1="490" y1="349.7" x2="484.4" y2="349.7"/>
		<line class="st2" x1="490" y1="356.5" x2="484.4" y2="356.5"/>
		<line class="st2" x1="490" y1="363.3" x2="484.4" y2="363.3"/>
		<line class="st2" x1="490" y1="370" x2="484.4" y2="370"/>
		<line class="st2" x1="490" y1="376.8" x2="484.4" y2="376.8"/>
		<line class="st2" x1="490" y1="383.6" x2="484.4" y2="383.6"/>
		<line class="st2" x1="520.1" y1="257.2" x2="514.5" y2="257.2"/>
		<line class="st2" x1="520.1" y1="264" x2="514.5" y2="264"/>
		<line class="st2" x1="520.1" y1="270.8" x2="514.5" y2="270.8"/>
		<line class="st2" x1="520.1" y1="277.5" x2="514.5" y2="277.5"/>
		<line class="st2" x1="520.1" y1="284.3" x2="514.5" y2="284.3"/>
		<line class="st2" x1="520.1" y1="291.1" x2="514.5" y2="291.1"/>
		<line class="st2" x1="520.1" y1="297.8" x2="514.5" y2="297.8"/>
		<line class="st2" x1="520.1" y1="304.6" x2="514.5" y2="304.6"/>
		<line class="st2" x1="520.1" y1="311.4" x2="514.5" y2="311.4"/>
		<line class="st2" x1="520.1" y1="318.1" x2="514.5" y2="318.1"/>
		<line class="st2" x1="520.1" y1="324.9" x2="514.5" y2="324.9"/>
		<line class="st2" x1="520.1" y1="331.7" x2="514.5" y2="331.7"/>
		<line class="st2" x1="520.1" y1="338.5" x2="514.5" y2="338.5"/>
		<line class="st2" x1="520.1" y1="343" x2="514.5" y2="343"/>
		<line class="st2" x1="520.1" y1="349.7" x2="514.5" y2="349.7"/>
		<line class="st2" x1="520.1" y1="356.5" x2="514.5" y2="356.5"/>
		<line class="st2" x1="520.1" y1="363.3" x2="514.5" y2="363.3"/>
		<line class="st2" x1="520.1" y1="370" x2="514.5" y2="370"/>
		<line class="st2" x1="520.1" y1="376.8" x2="514.5" y2="376.8"/>
		<line class="st2" x1="520.1" y1="383.6" x2="514.5" y2="383.6"/>
		<polyline class="st2" points="139.8,273.6 107.9,273.6 107.9,367.4 91.6,367.4 91.6,277.9 31.4,277.9 		"/>
		<polyline class="st2" points="148.4,157.4 125.2,157.4 131.2,170.3 113.1,170.3 118.3,176.4 		"/>
		<polyline class="st2" points="148.3,176.8 113.2,176.8 118,182.7 		"/>
		<polyline class="st2" points="148.3,182.7 113.2,182.7 118,188.7 		"/>
		<polyline class="st2" points="148.3,188.7 113.2,188.7 118,194.6 		"/>
		<polyline class="st2" points="148.3,194.6 113.2,194.6 118,200.6 		"/>
		<polyline class="st2" points="148.3,200.6 113.2,200.6 118,206.5 		"/>
		<polyline class="st2" points="148.3,206.5 113.2,206.5 118,212.4 		"/>
		<polyline class="st2" points="148.3,212.4 113.2,212.4 118,218.4 		"/>
		<polyline class="st2" points="148.3,218.4 113.2,218.4 118,224.3 		"/>
		<polyline class="st2" points="139.7,224.3 113.2,224.3 118,230.3 		"/>
		<polyline class="st2" points="139.7,230.3 113.2,230.3 118,236.2 		"/>
		<polyline class="st2" points="139.7,236.2 113.2,236.2 118,242.1 		"/>
		<polyline class="st2" points="139.7,242.1 113.2,242.1 118,248.1 		"/>
		<polyline class="st2" points="140,248.1 113.2,248.1 118,254 		"/>
		<polyline class="st2" points="140,254 113.2,254 118,260 		"/>
		<polyline class="st2" points="140.2,260 113.2,260 118,265.9 		"/>
		<polyline class="st2" points="140,265.9 113.2,265.9 118,271.9 		"/>
		<polyline class="st2" points="342,374.3 292.9,374.3 292.9,416.4 252.5,416.4 252.5,390.6 160.4,390.6 160.4,431 		"/>
		<polyline class="st2" points="390.2,366.5 459,366.5 459,386.3 546.8,386.3 546.8,400.1 565.7,400.1 565.7,429.3 		"/>
		<line class="st2" x1="527.8" y1="336.4" x2="575.2" y2="336.4"/>
		<line class="st2" x1="390.2" y1="375.1" x2="458.1" y2="375.1"/>
		<rect x="392.2" y="378.6" class="st2" width="8.2" height="6"/>
		<rect x="410.3" y="378.6" class="st2" width="8.2" height="6"/>
		<rect x="428.4" y="378.6" class="st2" width="8.2" height="6"/>
		<rect x="446.5" y="378.6" class="st2" width="8.2" height="6"/>
		<line class="st2" x1="390.2" y1="394.6" x2="458.1" y2="394.6"/>
		<rect x="392.2" y="398.1" class="st2" width="8.2" height="6"/>
		<rect x="410.3" y="398.1" class="st2" width="8.2" height="6"/>
		<rect x="428.4" y="398.1" class="st2" width="8.2" height="6"/>
		<rect x="446.5" y="398.1" class="st2" width="8.2" height="6"/>
		<line class="st2" x1="391" y1="413" x2="538.2" y2="413"/>
		<line class="st2" x1="463.3" y1="427.6" x2="463.3" y2="413.8"/>
		<rect x="297.3" y="378.9" class="st2" width="42" height="6.2"/>
		<rect x="297.3" y="393.1" class="st2" width="42" height="6.2"/>
	</g>
	<g id="freepik--Clouds--inject-4">
		<path class="st3" d="M136.1,71.7c0,0,3.8-11.9-10.3-17.9S88.9,56.5,90,62.4s12,11.9,4.4,12.5s-12.5-10.9-28.2-5.4S68.9,82,65.1,82
			S51,79.2,41.8,82s0,7.6,34.7,10.3s26.5-4.4,39.5-5.5s11.4,4.9,39,0S173,65.2,136.1,71.7z"/>
		<path class="st3" d="M576.5,157.2c0,0,3.7-11.6-10.1-17.5s-36,2.6-34.9,8.5s11.6,11.6,4.2,12.2s-12.2-10.6-27.5-5.3
			s2.6,12.2-1.1,12.2s-13.8-2.6-22.8,0s0,7.4,33.9,10.1s25.9-4.2,38.7-5.3s11.1,4.8,38.1,0S612.5,150.8,576.5,157.2z"/>
		<path class="st3" d="M610.5,128c0,0,1.3-4.1-3.5-6.1s-12.6,0.9-12.2,3s4.1,4.1,1.5,4.2s-4.3-3.7-9.6-1.8s0.9,4.2-0.4,4.2
			s-4.8-0.9-8,0s0,2.6,11.8,3.5s9-1.5,13.5-1.9s3.9,1.7,13.3,0S623,125.8,610.5,128z"/>
	</g>
	<g id="freepik--road-sign--inject-4">
		<rect x="464.9" y="147.5" class="st4" width="17.2" height="288"/>
		<path class="st4" d="M254.6,211.3c-0.8,0-1.5-0.3-2.1-0.8c-1.2-1-1.3-2.8-0.3-4c0-0.1,0.1-0.1,0.1-0.2l55.6-56.7
			c1.3-1.2,3.2-1.2,4.5,0l54.4,55.5c1.1,1.1,1.1,2.9,0,4c-0.1,0.1-0.1,0.1-0.2,0.1c-1.3,1.1-3.2,1-4.3-0.1L310.3,156l-53.4,54.4
			C256.3,211,255.5,211.3,254.6,211.3z"/>
		<path class="st4" d="M367.8,211.3c-0.8,0-1.5-0.3-2.1-0.8c-1.2-1-1.3-2.8-0.3-4c0-0.1,0.1-0.1,0.1-0.2l55.6-56.7
			c1.3-1.2,3.2-1.2,4.5,0l54.4,55.5c1.1,1.1,1.1,2.9,0,4c0,0-0.1,0.1-0.1,0.1c-1.3,1.1-3.2,1-4.3-0.1L423.4,156L370,210.4
			C369.4,211,368.6,211.3,367.8,211.3z"/>
		<rect x="247.6" y="147.5" class="st4" width="234.5" height="6.1"/>
		<rect x="247.6" y="206.5" class="st4" width="234.5" height="6.1"/>
		<rect x="58.6" y="119.3" class="st5" width="206.2" height="122.8"/>
		<path class="st6" d="M71.6,126.7h180.1c3.8,0,7,3.1,7,7v94.1c0,3.8-3.1,7-7,7H71.6c-3.8,0-7-3.1-7-7v-94.1
			C64.7,129.8,67.8,126.7,71.6,126.7z"/>
		<title>ionicons-v5-r</title>
		<g>
			<path class="st7" d="M100.6,157.9l-11.3-21c-0.6-1-1.6-1.7-2.8-1.7c0,0,0,0,0,0c-1.2,0-2.3,0.6-2.8,1.7l-11.3,21
				c-0.4,0.8-0.5,1.6-0.2,2.4c0.2,0.8,0.8,1.5,1.5,1.9c0.5,0.2,1,0.4,1.5,0.4c0,0,0,0,0,0h22.7c0.9,0,1.7-0.3,2.3-0.9
				c0.6-0.6,0.9-1.4,0.9-2.3C101,158.9,100.9,158.3,100.6,157.9z M98.6,160.1c-0.2,0.2-0.5,0.3-0.8,0.3H75.2c-0.2,0-0.3,0-0.5-0.1
				c-0.3-0.1-0.4-0.4-0.5-0.6c-0.1-0.3-0.1-0.6,0.1-0.8l11.3-21c0.3-0.5,0.7-0.6,0.9-0.6s0.7,0.1,0.9,0.6l11.3,21
				c0.1,0.2,0.1,0.3,0.1,0.5C98.9,159.7,98.8,159.9,98.6,160.1z"/>
			<path class="st7" d="M86.5,143.4C86.5,143.4,86.5,143.4,86.5,143.4c-0.9,0-1.5,0.7-1.5,1.5l0,0c0,0,0,0,0,0l0.4,8.1
				c0,0.6,0.5,1,1.1,1s1-0.4,1.1-1l0.4-8.1C88,144.1,87.3,143.4,86.5,143.4z"/>
			<circle class="st7" cx="86.5" cy="156.9" r="1.3"/>
		</g>
	</g>
	<g id="freepik--Car--inject-4">
		<path class="st8" d="M539.2,398.9h-8.3l-0.1,0.2c-0.7-0.1-1.4-0.2-2.2-0.2c-10.1,0-18.3,10.6-18.3,23.6s8.2,23.5,18.3,23.5
			c0.7,0,6.7-0.1,7.4-0.2l-5.2,0.2h8.3c10.1,0,18.3-10.6,18.3-23.6S549.3,398.9,539.2,398.9z"/>
		<path class="st8" d="M369.1,398.9h-8.3l-0.1,0.2c-0.7-0.1-1.4-0.2-2.1-0.2c-10.1,0-18.3,10.6-18.3,23.6s8.2,23.5,18.3,23.5
			c0.7,0,1.4-0.1,2.1-0.2l0.1,0.2h8.3c10.1,0,18.3-10.6,18.3-23.6S379.3,398.9,369.1,398.9z"/>
		<path class="st9" d="M618.2,399.6h-4l-3.6-25c-0.4-3-3.1-5.3-6.1-5.3h-22.3l-36.3-38.5c-3.9-4.2-9.4-6.5-15.1-6.5h-96.1
			c-4.2,0-8.2,1.7-11.1,4.7l-165.1,69.7v29.4H506l62.1-0.5l46-3v-0.2h3.8c0.8,0,1.5-0.7,1.5-1.5c0,0,0,0,0,0v-22
			C619.5,400.2,618.9,399.6,618.2,399.6C618.2,399.6,618.2,399.6,618.2,399.6z"/>
		<path class="st8" d="M547.9,423.6v4.2l20.3-0.1l46-3v-0.2h3.8c0.6,0,1.1-0.3,1.3-0.9L547.9,423.6z"/>
		<path class="st8" d="M568.2,427.6L568.2,427.6c0.8-0.1,1.4-0.9,1.3-1.7c-0.1-0.7-0.7-1.2-1.4-1.3h-23.3l-86.1-100.4h-23.9
			c-4.2,0-8.2,1.7-11.1,4.8l-165.1,69.7v29.4H506L568.2,427.6z"/>
		<path class="st8" d="M297.1,398.9h-8.3l-5.4,8c-6.1,9.5-6.1,21.7,0,31.2l5.4,8h8.3c10.1,0,18.3-10.6,18.3-23.6
			S307.2,398.9,297.1,398.9z"/>
		<ellipse class="st10" cx="286.5" cy="422.5" rx="18.3" ry="23.6"/>
		<ellipse class="st11" cx="286.5" cy="422.5" rx="14.6" ry="18.8"/>
		<path class="st11" d="M289.6,422.5c0,2.2-1.4,4-3.1,4s-3.1-1.8-3.1-4s1.4-4,3.1-4S289.6,420.3,289.6,422.5z"/>
		<path class="st8" d="M482.1,398.9h-8.3l-5.4,8c-6.1,9.5-6.1,21.7,0,31.2l5.4,8h8.3c10.1,0,18.3-10.6,18.3-23.6
			S492.2,398.9,482.1,398.9z"/>
		<ellipse class="st10" cx="471.5" cy="422.5" rx="18.3" ry="23.6"/>
		<ellipse class="st11" cx="471.5" cy="422.5" rx="14.6" ry="18.8"/>
		<path class="st11" d="M474.6,422.5c0,2.2-1.4,4-3.1,4s-3.1-1.8-3.1-4s1.4-4,3.1-4S474.6,420.3,474.6,422.5z"/>
		<path class="st8" d="M545.9,330.8c-0.3-0.3-0.6-0.6-0.9-0.9h-74.9v37H580L545.9,330.8z"/>
		<path class="st9" d="M554.5,399.6h-4.4l-4.3-30.3h-27.7l-36.3-38.5c-3.9-4.2-9.4-6.5-15.1-6.5h-88.2c-4.2,0-8.2,1.7-11.1,4.8
			l-56.4,37.7L259,389.1l-8.1,11c-2,2.7-3.1,6-3.1,9.3v18.7h16.5v-6.2c0-15.2,11-27.5,24.7-27.5l0,0c12.2,0,19.7,9.9,21.6,23.2
			l1.5,10.5h137.4v-6.2c0-15.2,6.2-27.5,23-27.5l0,0c14.9,0,20.3,9.9,22.6,23.2l1.8,10.1l53.4-3v-0.2h4.4L554.5,399.6z"/>
		<path class="st8" d="M367.9,334.5l-48.4,32.1H410v-36.3h-32C374.2,330.3,370.6,331.8,367.9,334.5z"/>
		<path class="st11" d="M357.4,366.6l28.7-36.3H378c-3.8,0-7.4,1.5-10,4.2l-17,11.2l-16.5,20.9H357.4z"/>
		<polygon class="st11" points="410,366.6 410,340.5 389.4,366.6 		"/>
		<path class="st8" d="M478.9,336.2l20.6,21c0.7,0.7,1.2,1.6,1.4,2.5l0,0c0.7,3-1.1,6-4,6.7c-0.4,0.1-0.9,0.2-1.3,0.2H416v-36.3
			h48.8C470.1,330.3,475.2,332.4,478.9,336.2z"/>
		<polygon class="st11" points="459.6,330.3 451.6,330.3 423,366.6 430.9,366.6 		"/>
		<polygon class="st11" points="416,332.9 416,361.9 441,330.3 418.1,330.3 		"/>
		<path class="st9" d="M545.8,369.2h58.7c3.1,0,5.7,2.3,6.1,5.3l3.6,25h-64L545.8,369.2z"/>
		<rect x="573.7" y="382.9" class="st11" width="27.8" height="11.4"/>
		<line class="st12" x1="617.3" y1="404.3" x2="498" y2="404.3"/>
		<line class="st12" x1="444.8" y1="404.3" x2="312.6" y2="404.3"/>
		<line class="st12" x1="268.8" y1="404.3" x2="253.6" y2="404.3"/>
		<path class="st11" d="M568.9,383.1h-26.3c-2.5,0-4.7,1.4-5.8,3.6l-4.4,8.8c-0.7,1.3-0.1,2.9,1.2,3.5c0.4,0.2,0.8,0.3,1.2,0.3h34.2
			V383.1z"/>
		<polygon class="st8" points="568.9,383.1 547.7,383.1 550,399.4 568.9,399.4 		"/>
		<polygon class="st8" points="611.8,383.1 605.3,383.1 605.3,399.4 614.1,399.4 		"/>
		<path class="st8" d="M312.5,359.1h12.9c1.1,0,2,0.9,2,2v10.3c0,1.1-0.9,2-2,2h-12.9c-1.1,0-2-0.9-2-2v-10.3
			C310.5,360,311.4,359.1,312.5,359.1z"/>
		<rect x="391.6" y="373.4" class="st8" width="16.2" height="6.5"/>
		<line class="st13" x1="411.7" y1="370.8" x2="411.7" y2="420.1"/>
		<path class="st13" d="M302,392.8c0,0,11.9,6.7,13.4,29.6h126.2"/>
		<path class="st13" d="M501.3,402.6c0,0-6.2-16.2-27-16.2c-14.5,0-21.4,7.6-24.9,13.6"/>
		<line class="st13" x1="549.5" y1="325.6" x2="584.1" y2="325.6"/>
		<line class="st13" x1="649" y1="370.1" x2="653.3" y2="370.1"/>
		<line class="st13" x1="613.8" y1="370.1" x2="643.5" y2="370.1"/>
		<line class="st13" x1="662.5" y1="349.2" x2="674.1" y2="349.2"/>
		<line class="st13" x1="568.6" y1="349.2" x2="647.7" y2="349.2"/>
		<line class="st13" x1="624.3" y1="423.9" x2="638.5" y2="423.9"/>
	</g>
	<g id="freepik--Floor--inject-4">
		<line class="st13" x1="38.2" y1="445.9" x2="672.5" y2="445.9"/>
		<line class="st13" x1="24" y1="445.9" x2="29.9" y2="445.9"/>
	</g>
	<g>
		<path class="st7" d="M119.5,212.5v-12.2H95V190l22.6-31.7h12.8v32.5h6.5l-1.1,9.5h-5.4v12.2H119.5z M119.5,181.1
			c0-5.9,0-9.1,0.2-12.6c-2.2,4.5-9.2,14.9-14.3,22.2h14.1V181.1z"/>
		<path class="st7" d="M183.8,185c0,14.9-4.7,28.4-20.8,28.4c-15.9,0-20.8-13.1-20.8-28.1c0-14.9,5.5-28.1,21.1-28.1
			C178.4,157.3,183.8,169.7,183.8,185z M154.4,185.2c0,10,1.1,18.8,8.8,18.8c7.5,0,8.5-8.3,8.5-19c0-10.5-1.3-18.4-8.4-18.4
			C156.3,166.7,154.4,173.5,154.4,185.2z"/>
		<path class="st7" d="M214.6,212.5v-12.2h-24.5V190l22.6-31.7h12.8v32.5h6.5l-1.1,9.5h-5.4v12.2H214.6z M214.6,181.1
			c0-5.9,0-9.1,0.2-12.6c-2.2,4.5-9.2,14.9-14.3,22.2h14.1V181.1z"/>
	</g>
</g>
<g id="Layer_2">
</g>
</svg>
